<?xml version="1.0" encoding="UTF-8"?>
<svg width="300" height="100" aria-label="Dr. Ronaldo Lopes dos Santos — Psiquiatra Geral e da Infância e Adolescência" role="img" viewBox="0 0 300 100" xmlns="http://www.w3.org/2000/svg"><title>Dr. Ronaldo Lopes dos Santos — Psiquiatra Geral e da Infância e Adolescência</title><g transform="translate(2.17 13.2) scale(.1454)"><path d="m108.4 445.3a240.7 240.7 0 1 1 293.1-2.5" fill="none" stroke="#1D4155" stroke-linecap="round" stroke-width="5.02"/><path d="m328.3 128.3c-3.51-3.1-5.31-4.1-7.91-5.8-2.6-1.8-4.2-2.9-7.9-4.5-3.8-1.7-9.7-4.2-14.5-5.6s-8.6-2.4-14.3-2.9-15.2-0.2-20 0c-4.9 0.2-5.3 0.4-9 1.3-3.7 1-10.7 3.8-13.2 4.3-2.5 0.4-0.9-1.6-1.9-1.6-0.9 0-0.9-0.1-3.7 1.6-2.7 1.6-8 4.2-12.6 8.1-4.7 4-11.6 11.4-15.3 15.4s-5.1 6.2-6.9 8.7-1.9 2.3-3.7 6.3-5.4 12.1-7.1 17.4c-1.7 5.4-2.4 9.4-2.9 14.8s-0.5 11.9 0 17.7 1.5 11.5 3.1 17.1c1.7 5.7 4.4 12 6.6 16.7 2.3 4.6 3.9 7 7.2 11 3.2 4.1 10 10.9 12.4 13.2 2.4 2.4 1.4 1 1.8 1.1 0.5 0.1 2.2 1.8 0.8-0.5-1.4-2.4-6.8-9.8-9.2-13.8-2.4-3.9-3.5-6.6-5-10s-2.9-6.5-4-10.5c-1.1-4.1-2.2-9.4-2.6-13.8-0.5-4.4-0.6-8.3-0.3-12.6 0.3-4.4 0.8-8.7 1.8-13.5 1.1-4.8 3.5-12 4.5-15.3 1.1-3.3-0.3-1 1.9-4.5 2.1-3.5 7-11.7 11.1-16.6s9.2-9.6 13.4-12.9c4.3-3.4 8.3-5.4 12.2-7.4 3.9-2.1 6.6-3.6 11.3-5 4.8-1.5 11.8-3.1 17.2-3.7 5.4-0.7 10.4-0.4 15.3 0 4.8 0.4 10.1 1.5 13.7 2.3 3.7 0.9 4 0.7 8.2 2.7 4.2 1.9 13.2 6.6 17.1 8.9 4 2.4 4.3 2.9 6.6 5.1 2.4 2.1 4.3 3.4 7.7 7.6 3.3 4.2 9.8 13.3 12.4 17.4 2.6 4.2 2.2 3.8 3.4 7.4s3 11.9 3.7 14.3c0.8 2.4 0.7 0.9 0.8 0.2 0.1-0.6 0.6-1.1 0-4.2s-1.7-9.4-3.4-14.2c-1.7-4.9-4-10.2-6.6-15.1-2.7-4.8-5.6-9.5-9.3-14-3.6-4.4-9.4-9.6-12.9-12.6zm-256.3 186.3c0.05 1.4 0.45 4.6 1.55 8.4 1.2 3.9 2.8 8.6 5.3 14.6 2.6 5.9 6.7 14.8 10 21.1 3.4 6.2 6.6 11.2 10.3 16.3 3.7 5.2 6.5 9 11.9 14.5 5.4 5.6 15.1 14.6 20.3 19 5.2 4.5 6.7 5.2 10.9 8 4.1 2.7 9.7 6.2 14.2 8.7s5.5 3.4 12.9 6.3c7.5 3 20.9 8.2 31.7 11.4 10.8 3.1 25.7 5.4 33 7.3 7.3 2 9 3.3 10.6 4.3 1.5 1 0.7 0.4-1.1 1.8-1.8 1.5-6.6 4.3-9.5 6.9-2.9 2.5-6.6 6.6-7.9 8.4-1.4 1.9-0.7 1.8-0.3 2.7 0.5 0.8 2.1 2.2 2.9 2.6 0.9 0.4 0.1 1.6 2.1-0.3 2.1-1.8 6.7-7.8 10.3-10.8 3.7-3 8.9-6.5 11.6-7.4 2.8-0.9 2.6 0.6 5 2.1 2.5 1.6 6.9 4.5 9.8 7.2 3 2.6 6.1 7.4 7.9 8.9s2.1 0.5 2.9 0c0.9-0.4 2.1-1.7 2.4-2.6s1.1-0.7-0.5-2.6c-1.6-2-6-6.7-9-9.3-2.9-2.5-7.2-4.7-8.7-6.1-1.5-1.3-1.6-0.9-0.3-1.8 1.4-0.9 1-1.4 8.5-3.4s26.8-5.7 36.7-8.5c9.9-2.7 16.8-5.7 22.7-7.9s9.2-3.6 12.6-5.3c3.5-1.6 3.2-1.3 8.2-4.5 5.1-3.1 16.4-10.3 22.2-14.5 5.7-4.2 8.7-7.1 12.4-10.5 3.7-3.5 6.3-6.2 9.7-10.1 3.5-3.8 7.9-9.2 10.9-13.2 3-3.9 3.8-4.3 7.1-10.2 3.3-6 9.6-17.6 12.9-25.4s5.9-17.8 6.9-21.4 1.1-4.9-1.1-0.2c-2.1 4.7-9 22.3-11.8 28.5-2.9 6.2-2.5 4.7-5.1 8.7s-6.6 10.2-10.5 15.3c-4 5.1-9.8 11.5-13.2 15.3s-4.2 4.5-7.4 7.4-7.5 6.6-11.6 9.8c-4.1 3.1-8.8 6.2-12.9 8.9-4.2 2.7-6 4.1-12.2 7.2-6.2 3-16.9 8-25.1 11-8.1 3.1-15.2 5-23.7 7.2s-19.5 4-27.2 6c-7.6 2.1-12.9 6.3-18.7 6.4-5.9 0-7.8-3.7-16.4-6.1s-25.7-5.5-35.4-8.2c-9.6-2.6-15.1-4.6-22.7-7.6-7.5-3.1-15.4-6.8-22.7-10.9-7.2-4-15.3-9.7-20.8-13.7s-8.4-6.8-12.1-10.3c-3.8-3.4-6-5.4-10.3-10.5-4.4-5.1-11.5-13.9-15.9-20.1-4.3-6.2-7.5-11.9-10.3-17.1-2.7-5.3-4.1-9-6.3-14.3s-5.3-14.8-6.6-17.7-1.1-1.2-1.1 0.3zm221.2 137c-0.31 0.3-0.41 0.4 0.29 1.3s2.5 3 3.9 4.2 1.9 1.9 4.5 2.9c2.6 1.1 7.9 2.9 11.1 3.4 3.2 0.6 5.5 0.3 8.2 0 2.7-0.2 5.5-0.7 7.9-1.3s5.2-1.7 6.6-2.4c1.4-0.6 1.6-1.1 1.9-1.5 0.2-0.5 0.8-0.3-0.3-1.4s-4.3-3.8-6.3-5.2c-2.1-1.4-4-2.3-6.1-3.2s-3.9-1.6-6.6-2.1-6.3-1.1-9.5-1.1-7.8 0.8-9.8 1.1-1.9 0.4-2.4 0.8c-0.4 0.3-0.8 0.8-0.5 1.3s1 1.1 2.4 1.6 4.5 0.9 5.8 1.3 1.9 1.1 1.8 1.3c0 0.3-0.3 0.6-2.1 0.3-1.7-0.3-6.6-1.9-8.4-2.1s-2 0.4-2.4 0.8zm-80.23 0c-0.38-0.4-0.58-0.8-2.38-0.6-1.8 0.3-6.3 1.8-8.4 2.1-2.2 0.4-3.9 0.4-4.5 0.3-0.7-0.1-1.3-0.2 0.5-0.8s8.5-2.1 10.6-2.9c2-0.8 1.8-1.3 1.5-1.8-0.2-0.6-1.5-1.2-2.9-1.6s-2.7-0.8-5.5-0.8c-2.8-0.1-8.3 0.2-11.4 0.5-3 0.4-4.5 0.8-6.8 1.6s-4.5 1.7-6.9 3.2-6.1 4.5-7.4 5.8c-1.2 1.3-0.9 1.1-0.2 1.8s1.7 1.6 4.5 2.4c2.7 0.8 8.4 2.2 11.8 2.6 3.5 0.4 6.4 0 8.7-0.2 2.4-0.2 3.6-0.6 5.3-1.1s3.2-1 5-2.1c1.8-1 4.5-3.1 5.8-4.2 1.4-1.2 2-1.9 2.4-2.7 0.5-0.7 0.6-1.2 0.3-1.5zm127-14.8c0.17 0.6 0.87 1.3 2.37 2.1s3.6 2.1 6.6 2.6c3 0.6 8 1 11.3 0.8 3.4-0.2 6.6-1.3 9-2.1 2.4-0.7 3.1-1 5.3-2.4 2.2-1.3 6.8-4.5 8.2-5.8 1.4-1.2 0.5-1 0.2-1.6-0.2-0.5 0.3-0.7-1.5-1.5s-7.1-2.6-9.3-3.2-1.1-0.5-3.9-0.5c-2.9 0-9.4-0.1-13.2 0.5s-7.3 2.2-9.5 3.2c-2.2 0.9-3.2 1.9-3.7 2.6s-1 1.2 0.8 1.6c1.7 0.3 7.9 0.3 9.5 0.5 1.5 0.2 1.8 0.3 0 0.5-1.8 0.3-8.8 0.7-10.9 1.1-2 0.4-1.5 1-1.3 1.6zm-216.4-6.4c-0.61 0.7-0.21 0.7 0.29 1.4 0.5 0.6 1.3 1.6 2.6 2.6s3.1 2.2 5 3.2c2 1 4.4 2.1 6.9 2.9s5.5 1.5 7.9 1.8 4.6 0.2 6.6 0 3.7-0.5 5.6-1c1.8-0.6 4.4-1.7 5.8-2.4 1.3-0.8 1.8-1.5 2.1-2.1 0.2-0.6 1-1.2-0.8-1.6s-8.4-0.8-10.1-1.1c-1.6-0.2-1.3-0.3 0-0.5 1.4-0.2 6.7-0.2 8.2-0.5 1.6-0.4 2-0.7 1.1-1.6s-4.2-2.7-6.3-3.7c-2.2-1-5-1.7-6.9-2.1s-1.9-0.5-4.8-0.5c-2.8 0-8.8 0-12.1 0.5s-5.5 1.6-7.4 2.4c-1.8 0.8-3.1 1.7-3.7 2.3zm65.72-24c-0.43 0.6-0.53 1.1-0.23 3.2s0.5 6 2.1 9.2c1.5 3.3 5.1 7.9 7.1 10.3s2.9 2.9 4.8 4.3c1.8 1.3 4.7 2.9 6.3 3.6 1.6 0.8 2.5 0.8 3.4 0.8 0.9 0.1 1.9-0.1 2.1-0.5 0.3-0.4 0.3-0.8-0.5-1.8s-3.7-3.3-4.5-4.3c-0.7-0.9-1.1-2 0-1.3s5.2 4.6 6.6 5.6 1.5 0.9 1.9 0.5 0.6-1.9 0.5-3.2-0.7-2.9-1.3-4.5c-0.6-1.5-1.1-2.8-2.4-4.7s-2.8-4.5-5.3-6.9c-2.4-2.3-6.5-5.3-9.5-7.1s-6.8-2.9-8.7-3.4c-1.8-0.6-1.9-0.3-2.4 0.2zm128.3 0.3c-0.49-0.5-0.79-0.7-2.59-0.3-1.8 0.5-5.5 1.6-8.2 2.9-2.7 1.4-5.5 3.1-7.9 5.3-2.5 2.3-5.1 5.3-6.9 8.2s-3.3 7.1-4 9.2c-0.6 2.1-0.3 2.9 0 3.5 0.4 0.5 0.8 1 2.1 0 1.4-1 4.9-5.2 6.1-6.1s1.8-0.3 1.1 0.8-4.5 4.5-5.3 5.8-0.5 1.9 0.3 2.1c0.7 0.2 2.2 0.3 4.4-0.8 2.3-1 6.7-3.8 9-5.5 2.3-1.8 3.4-2.9 5-5 1.7-2.2 3.6-5.1 4.8-8 1.2-2.8 2-7.2 2.4-9.2 0.3-2 0.2-2.4-0.3-2.9zm-231.4-11.6c-0.14 0.6-0.04 1.1 0.76 2.4 0.9 1.2 2.7 3.4 4.3 5 1.5 1.5 3.2 3 5 4.2s3.7 2.3 5.8 3.2c2 0.8 4.4 1.6 6.3 2.1 1.9 0.4 2.8 0.5 5 0.5s6.3-0.1 8.2-0.5 3-1.3 3.4-1.9c0.5-0.5 1-0.5-0.8-1.3-1.7-0.7-8.1-2.5-9.7-3.2-1.7-0.6-1.6-0.9 0-0.8 1.5 0.2 7.5 1.5 9.2 1.6s1.7 0.1 0.8-1c-0.9-1.2-3.9-4.2-6.3-5.8-2.5-1.7-5.6-3.2-8.5-4.3-2.9-1-5.7-1.7-8.9-2.1-3.3-0.3-8.1-0.1-10.3 0s-2.2 0.3-2.9 0.6-1.3 0.7-1.4 1.3zm334.1-0.3c-0.56-0.7-1.26-1.3-3.96-1.6-2.7-0.2-9.1-0.1-12.4 0.3s-4.5 0.6-7.4 1.8c-2.9 1.3-7.7 4.3-10 5.9-2.3 1.5-3.1 2.6-3.7 3.4-0.7 0.8-0.6 1-0.3 1.3 0.4 0.3 0.7 0.8 2.4 0.5 1.7-0.2 6.5-1.8 7.9-2.1 1.5-0.2 2.5-0.2 0.8 0.5-1.7 0.8-9.2 3.1-11.1 4s-0.9 0.8-0.2 1.3c0.6 0.6 1.7 1.5 3.9 1.9 2.3 0.3 6.4 0.6 9.5 0.2 3.1-0.3 6.1-1.1 9-2.3 2.9-1.3 6-3.3 8.4-5.3 2.5-2 5.2-5.2 6.4-6.9 1.2-1.6 1.3-2.1 0.8-2.9zm-266-6.3c-0.53 0.9-0.93 3-1.03 5.3s-0.3 5.3 0.5 8.4 2.8 7.5 4.2 10c1.4 2.6 2.7 3.8 4.2 5.3 1.5 1.6 3.5 3.1 4.8 4s2.4 1.4 3.2 1.6c0.8 0.1 1.5 0.4 1.5-0.6 0-0.9-1.8-4.8-1.5-5s2.6 3.1 3.4 3.7c0.8 0.7 1 0.5 1.3 0.3 0.4-0.2 0.8 0.2 0.8-1.3 0-1.6 0.3-5.2-0.5-8.2-0.8-3.1-3.1-7.8-4.2-10.1-1.1-2.2-0.9-1.8-2.4-3.4s-4.6-4.6-6.6-6.3c-2.1-1.7-4.5-3.1-5.8-3.7s-1.4-0.9-1.9 0zm197.9 0c-0.47-0.3-0.47-0.5-1.87 0.3-1.3 0.7-3.9 2-6.3 4.2s-6.4 6.7-8.2 8.9c-1.8 2.3-1.6 2.6-2.4 4.5-0.7 2-1.7 4.7-2.1 7.2-0.4 2.4-0.3 5.9-0.2 7.3 0 1.5 0.3 1.1 0.7 1.1 0.5 0 0.6 0.7 1.9-1.1 1.3-1.7 5-7.8 6.1-9.2s1.2-0.5 0.5 1.1c-0.8 1.6-4.1 6.8-5 8.4s-0.4 1-0.3 1.3c0.1 0.4-0.5 1.3 0.8 0.8s4.5-1.6 6.9-3.7c2.3-2 5.6-6.4 7.1-8.7 1.5-2.2 1.5-3 2.1-4.7 0.6-1.8 1.1-3.2 1.3-5.8 0.2-2.7 0.2-8.1 0-10.1-0.2-1.9-0.6-1.5-1-1.8zm-291.6-37c-0.34 0.6-0.44 1 0.26 2.7 0.7 1.6 2.8 5.2 4 7.1 1.1 1.9 1.5 2.6 3.1 4.2s3.8 3.8 6.4 5.3c2.5 1.5 6.3 3.2 8.9 4 2.6 0.7 5 0.6 6.6 0.5 1.7-0.1 2.8-0.7 3.2-1.1s0.1-0.8-0.5-1.3-2.7-1.4-3.2-1.8c-0.5-0.5-0.2-0.7 0.3-0.8s2.2 0.6 2.6 0.2c0.4-0.3 0.4-1-0.3-2.3-0.7-1.4-2.2-3.8-3.9-5.6s-3.4-3.5-6.1-5.3c-2.7-1.7-6.8-3.9-10-5s-7.4-1.4-9.3-1.6c-1.8-0.1-1.8 0.3-2.1 0.8zm385.6-0.2c-0.92-0.6-4.02-0.2-5.82 0s-2.4 0-5 1-7.7 3.3-10.6 5c-2.8 1.8-4.8 4-6.3 5.6s-2.2 2.8-2.9 3.9c-0.7 1.2-1.3 2.6-1 3.2 0.2 0.6 1.9 0.1 2.3 0.3 0.5 0.2 0.7 0.3 0.3 0.8-0.5 0.4-2.4 1.2-2.9 1.8s-1.6 1.3 0 1.6c1.5 0.3 6 1 9.2 0.3 3.2-0.8 7.6-3.4 10.1-4.8 2.4-1.4 3-2.2 4.4-3.7 1.5-1.5 3-3.4 4.3-5.3 1.2-1.9 2.7-4.4 3.4-6 0.7-1.7 1.4-3.1 0.5-3.7zm-379.8-89c-0.74 0.3-1.24 1.1-2.14 2.7-0.8 1.6-2.3 3.8-2.9 6.8-0.6 3.1-0.7 8.7-0.8 11.4 0 2.7-0.4 2.1 0.6 4.7 0.9 2.6 3.7 8.7 5 10.9 1.3 2.1 2 2.1 2.6 1.8 0.7-0.3 0.9-3.2 1.3-3.4 0.5-0.3 0.8 1.7 1.4 1.8 0.5 0.2 1.2 0.3 1.8-1 0.6-1.4 1.5-4.3 1.9-6.9 0.3-2.6 0.3-5.2 0-8.4-0.4-3.3-1.1-8-2.2-11.1-1-3.2-3.1-6.4-4.2-7.9-1.1-1.6-1.6-1.6-2.4-1.4zm58.59 101.1c-0.73 1.2-2.33 4.5-2.93 7.4-0.5 2.9-0.3 7.4-0.2 9.8 0.1 2.3-0.1 1.9 0.8 4.2 0.8 2.2 2.8 6.9 4.2 9.2 1.3 2.3 3 3.7 3.9 4.5 1 0.8 1.2 0.4 1.6 0.3s0.8-0.2 0.8-0.8c0-0.7-0.7-2.5-0.8-3.2 0-0.6 0.1-1.3 0.6-0.8 0.4 0.6 1.7 3.5 2.3 4.3 0.6 0.7 1 0.3 1.3 0.2 0.4-0.1 0.5 0.3 0.8-0.8 0.3-1 0.9-3.8 1.1-5.5s0.3-2.5 0-4.8-0.6-5.8-1.9-8.9c-1.2-3.2-3.8-7.6-5.5-10.1-1.7-2.4-3.5-3.9-4.5-4.7-1-0.9-0.8-1.5-1.6-0.3zm315.4-100.8c-0.61-0.3-0.91-0.3-1.81 1.1-1 1.3-2.9 4.3-4 7.1s-2.2 6.2-2.6 9.7c-0.5 3.6-0.4 8.3 0 11.4s1.4 5.6 2.3 7.1c1 1.5 2.3 1.7 3.2 1.9 0.9 0.1 1.3-0.2 2.1-1.1s1.7-2.2 2.7-4.2c0.9-2 2.5-5.6 3.1-7.7 0.6-2 0.6-1.8 0.6-4.5 0-2.6 0-8.3-0.6-11.3-0.5-3-2-5.3-2.9-6.9-0.8-1.5-1.4-2.3-2.1-2.6zm-393.5 41.4c-0.41 0.4-0.61 1-0.51 2.1 0 1.1-0.3 1.8 0.8 4.5 1 2.8 3.8 9.1 5.5 11.9 1.8 2.8 2.9 3.5 5 5 2.2 1.6 5.8 3.4 8 4.2 2.1 0.9 4 1 5 0.8 0.9-0.1 0.6-1 0.5-1.5-0.1-0.6-1.1-1.4-1.1-1.9 0.1-0.5 1.3-0.6 1.6-1.1 0.3-0.4 0.8-0.2 0.3-1.8s-1.9-5.5-3.4-7.9c-1.6-2.5-3.8-4.8-6.1-6.9-2.3-2-5.7-4.2-7.9-5.5-2.3-1.3-4.3-1.8-5.6-2.1s-1.6-0.2-2.1 0.2zm334.9 59.4c-0.52-0.2-0.22-1.1-1.62 0.3-1.3 1.3-4.7 4.9-6.6 7.9-1.8 3-3.6 6.8-4.4 10-0.9 3.2-0.9 6.7-0.8 9.3 0 2.6 0.7 5.1 1 6.3 0.4 1.2 0.6 1.1 1.1 1.1 0.4 0 1 0 1.6-1.1 0.5-1.1 1.3-4.6 1.8-5.8s1-1.5 1.3-1.6 0.8-0.7 0.6 0.8c-0.3 1.4-1.9 6.6-1.9 7.9 0 1.4 0.6 1.4 1.9 0.3 1.2-1.1 4.1-4.6 5.5-6.9s2.3-5.1 2.9-7.1 0.7-2.4 0.8-4.8c0.1-2.3 0-6.7-0.3-9.2s-1.1-4.6-1.6-5.8c-0.4-1.2-0.8-1.4-1.3-1.6zm-279-32.4c-0.86 0.4-2.26 2.2-3.16 3.9s-1.8 3.9-2.4 6.1c-0.6 2.1-0.9 4.4-1 6.8-0.1 2.5 0 5.4 0.5 8s1.8 5.9 2.6 7.6c0.9 1.8 1.8 2.5 2.4 2.9s0.9 0.2 1.1-0.5c0.1-0.8-0.2-3.2 0-4 0.1-0.8 0.4-1.5 0.8-0.8 0.3 0.7 0.8 4.2 1.3 5.1 0.5 0.8 0.7 1.3 1.6 0.2 0.8-1 2.6-4 3.4-6.6 0.7-2.5 1.3-5.3 1-8.7-0.2-3.4-1.5-8.7-2.6-11.9-1-3.1-2.8-5.7-3.7-7.1s-1-1.5-1.8-1zm356.8-27c-0.38-0.4-0.18-0.7-1.58-0.2-1.5 0.5-4.7 1.7-7.1 3.1s-5.6 3.8-7.4 5.3-2 1.3-3.4 3.7c-1.5 2.4-4.3 8.8-5.1 10.8-0.7 2.1-0.1 1.3 0.6 1.3 0.6 0.1 3-1.1 3.1-0.7 0.2 0.4-2 2.3-2.3 3.1-0.4 0.9-0.2 1.6 0.2 1.9s0.4 0.6 2.1 0c1.8-0.6 5.9-2.1 8.5-3.7 2.5-1.7 4.9-3.6 6.8-6.4 2-2.7 4-7.3 5.1-10 1-2.6 0.9-4.4 1-5.8s-0.2-1.9-0.5-2.4zm-55.69 27.2c-0.79-0.3-0.89-0.3-1.89 1.1-0.9 1.4-2.6 4.3-3.6 7.4-1.1 3-2.2 7.7-2.4 11-0.2 3.4 0.3 6.7 1 9.3 0.8 2.6 2.7 5.3 3.5 6.3 0.7 1.1 0.7 0.2 1 0s0.6-0.1 0.8-1c0.2-1 0.1-3.6 0.3-4.5 0.2-1 0.5-2.1 0.8-1.3 0.2 0.7 0.3 4.9 0.5 6 0.2 1.2 0.4 0.8 0.8 0.8 0.3 0 0.6 0.3 1.3-0.8s2.2-4 2.9-5.8c0.7-1.7 0.8-2.6 1.1-4.7 0.2-2.2 0.3-5.9 0.2-8.2s-0.2-3.8-0.8-5.8c-0.5-2.1-1.7-5-2.6-6.6s-2.1-2.8-2.9-3.2zm-312.5-38c-0.62-0.1-1.32-0.3-2.42 0.5-1.1 0.9-2.7 2.3-4.2 4.5-1.4 2.2-3.5 6.4-4.5 8.7-0.9 2.4-1 3.3-1.3 5.3s-0.4 4.5-0.3 6.6c0.2 2.2 0.9 5.2 1.4 6.3 0.5 1.2 1 1.1 1.6 0.8 0.5-0.3 1.4-2.6 1.8-2.6s0.3 2.4 0.8 2.9c0.4 0.5 0.9 0.8 1.8 0 1-0.8 2.9-2.9 4-4.7 1.1-1.9 2.2-4.1 2.9-6.4 0.7-2.2 1.1-4.7 1.3-7.1s0-4.9-0.2-7.1c-0.3-2.3-0.9-5.1-1.4-6.4-0.4-1.2-0.7-1.2-1.3-1.3zm323.8 0c-0.54 0.3-0.84 0.3-1.34 1.9-0.4 1.5-1.1 5.4-1.3 7.6s-0.2 3.6 0 5.6c0.2 1.9 0.6 4.1 1.3 6.3 0.8 2.2 2 5 3.2 6.9 1.2 1.8 3.1 3.6 3.9 4.4 0.9 0.8 1.1 0.6 1.4 0.3s0.6-0.4 0.5-2.1-1.4-7.1-1.3-8.2c0-1 1 0.5 1.6 1.9 0.5 1.3 1 4.9 1.5 6 0.6 1.1 1.2 0.9 1.6 0.6 0.5-0.4 0.9-0.5 1.1-2.7s0.3-7.8 0-10.5c-0.3-2.8-1-4.1-1.9-6.1-0.8-2-2-4.1-3.4-6.1-1.4-1.9-3.9-4.6-5-5.5-1.2-1-1.3-0.6-1.9-0.3z" fill="#D6AC63"/><path d="m312 106.1c-5.85-1.5-10.15-2-16.05-2.4-6-0.4-13.9-0.4-19.6 0s-10.5 1.5-14.5 2.4-6 1.6-9.5 2.9-9.3 3.7-11.3 4.7c-2.1 1.1-4.5 2.3-1.1 1.6 3.4-0.6 15.4-4.5 21.6-5.5 6.3-1 11.1-0.7 15.9-0.5 4.7 0.1 9.1 0.7 12.6 1.3 3.6 0.6 5 0.8 8.8 2.1 3.7 1.3 10.2 3.8 13.9 5.5 3.8 1.8 5 2.5 8.5 5 3.5 2.6 9.7 7.6 12.7 10.1 2.9 2.5 2.8 2.3 5 5s5.8 7.5 8.2 11.1c2.3 3.5 3.9 6.3 5.8 10.3 1.8 3.9 3.9 9.1 5.2 13.4 1.4 4.4 2.2 8.6 2.9 12.7s1.1 7.8 1.4 11.9c0.2 4 0.3 7.7 0 12.4-0.4 4.6-1.1 10.5-2.2 15.5-1 5.1-2.2 9.5-4.2 14.6-2 5-5.1 11.3-7.6 15.8-2.6 4.5-5 7.8-7.7 11.1s-6.1 6.5-8.4 8.7c-2.3 2.1-2.7 2.4-5.3 4.2s-5.9 4.4-10.3 6.6-11.3 5.1-16.1 6.6c-4.8 1.6-7.3 2.1-12.9 2.7-5.7 0.5-15.8 0-20.9 0.5s-6.7 1.1-9.7 2.4c-3.1 1.2-6.1 3-8.5 5-2.4 1.9-4.5 4.5-6.1 6.6-1.5 2-2.3 4-3.1 5.8-0.8 1.7-1.3-7.9-1.6 4.7-0.4 12.6-0.6 59.1-0.5 71 0 12-1 1.3 0.8 0.8 1.7-0.5 7.3-2.5 9.7-3.7s3.1-1.9 4.8-3.7 3.9-4.6 5.5-7.1c1.6-2.6 3-5.1 4-8.2 0.9-3.1 1.5-2.1 1.8-10.5 0.3-8.5-0.2-32.2 0-40.2 0.3-7.9 0.6-5.7 1.6-7.3 1-1.7 1.3-1.9 4.2-2.7 3-0.7 9-1.4 13.5-1.8s8.7 0 13.7-0.6c5-0.5 9.9-0.8 16.1-2.6 6.3-1.8 15.7-5.3 21.4-7.9s8.7-4.9 12.7-7.7c3.9-2.7 8-6.2 11-8.9 3.1-2.8 5.1-5 7.4-7.7 2.4-2.7 4.1-4.2 6.9-8.7s7.4-12.7 10-18.5 4.2-10.2 5.6-16.3c1.3-6.2 2.2-13.7 2.3-20.6 0.2-6.9-0.9-16.5-1.3-20.9s-0.1-2.4-1-5.5c-1-3.2-3.1-9.7-4.5-13.5-1.5-3.8-2.7-6.5-4.3-9.5-1.5-3-2.5-5.1-5-8.7s-6.8-9.3-10-12.9c-3.2-3.7-6.2-6.4-9.2-9s-4.7-4-8.7-6.6c-4.1-2.5-9.9-6.2-15.6-8.7-5.7-2.6-12.9-5.1-18.7-6.6zm-15.31-26.4c-4.54-1.1-8.34-1.8-12.64-2.4-4.4-0.5-8.6-0.9-13.5-1-4.8-0.2-9.6-0.3-15.6 0.2-5.9 0.6-14.1 1.6-20.3 2.9-6.1 1.4-11.8 3.3-16.6 5.1-4.8 1.7-7.5 2.7-12.4 5.2-4.9 2.6-12.5 6.9-17.2 10.1-4.6 3.1-7.3 5.5-10.8 8.7s-7.4 7.3-10.3 10.5c-2.9 3.3-5.1 6.2-7.1 9s-3.2 4.5-5 7.9c-1.9 3.4-4.4 8.5-6.1 12.4s-3 6.9-4.2 11.1-2.3 9.5-2.9 14.3-0.8 9.9-0.5 14.5c0.2 4.6 1.6 9.3 1.8 13.2 0.2 3.8 0.6 6.2-0.8 10-1.3 3.8-3.4 7-7.4 12.9-4 6-13.5 18.2-16.6 22.7-3.1 4.6-1.8 3.1-2.1 4.8-0.4 1.7-0.3 3.9 0 5.5s0.7 2.6 1.8 4c1.1 1.3 2.3 2.7 4.8 4.2 2.4 1.5 7.9 3.7 10 5 2.1 1.4 2 1.7 2.4 3.2 0.3 1.4 0.3 3.6-0.3 5.5-0.5 2-2.4 4.3-2.9 6.1s-0.2 3.5 0 4.7c0.3 1.3 0.6 1.7 1.6 2.9 1 1.3 3.9 2.9 4.2 4.5 0.3 1.7-2 4-2.3 5.6-0.4 1.5-0.3 2.7 0 3.7 0.2 1 0.2 1.2 1.3 2.3 1.1 1.2 4.1 3.4 5.3 4.8 1.1 1.4 1.6 1 1.5 3.7s-1.7 9.5-2.1 12.4c-0.3 2.9-0.2 3.3 0 5s0.5 3.4 1.1 5c0.6 1.7 0.8 2.9 2.4 4.8 1.5 1.8 4.4 4.7 6.8 6.3s4.2 2.5 7.7 3.2c3.4 0.7 8.5 1.2 12.9 1 4.4-0.1 9.9-1.6 13.7-2.1 3.9-0.4 7.2-0.5 9.5-0.5s2.7 0.1 4.2 0.5c1.6 0.5 3.6 1.3 5.1 2.1 1.5 0.9 2.4 1.4 3.9 2.9 1.6 1.6 3.3 2.6 5.3 6.4s5.4 12 6.9 16.3 1.5 8 2.1 9.5c0.5 1.5 0.9 2.5 1-0.5 0.2-2.9 0.2-12.4-0.2-17.1-0.4-4.8-1.3-8.7-2.1-11.7-0.9-3-1.3-4-2.9-6.3-1.7-2.3-4.6-5.5-6.9-7.4-2.3-1.8-4.1-2.8-6.9-3.7-2.7-0.9-4.8-1.9-9.7-1.8-5 0.1-15.3 2-19.8 2.3-4.6 0.4-5 0.4-7.4 0-2.5-0.3-5.3-0.8-7.4-1.8s-3.8-2.2-5-4c-1.3-1.7-2.3-3.3-2.4-6.6s1.7-9.8 1.8-13.2c0.2-3.3-0.3-5-0.7-6.8-0.5-1.8-1-2.5-2.2-4-1.1-1.5-4.2-3.8-5-5-0.7-1.2-0.4-1 0.6-2.1 0.9-1.1 4.3-3.2 5.2-4.2 1-1 1.4-0.8 0.3-1.9-1.1-1-5.1-3.3-6.6-4.5-1.4-1.1-1.8-1.3-2.1-2.3s-0.2-1.7 0.3-3.7c0.4-2.1 2.2-6.1 2.6-8.7 0.3-2.6 0.3-4.9-0.5-6.9s-1.5-3.3-4.3-5.3c-2.7-1.9-10.1-5-12.4-6.3-2.2-1.3-0.8-0.7-1-1.3-0.2-0.7-3.3 2.3-0.3-2.7 3.1-4.9 14.3-20 18.5-26.9 4.2-6.8 5.4-10.4 6.6-14.2 1.2-3.9 0.7-5.5 0.5-9s-1.3-7.8-1.6-11.9c-0.2-4-0.2-8.1 0.3-12.4s1.6-8.9 2.9-13.5c1.3-4.5 3.2-9.8 4.8-13.7 1.5-3.8 2.3-5.4 4.7-9.2s6.1-9.6 9.5-13.7c3.4-4.2 7-7.9 10.8-11.4s7.2-6.3 11.9-9.5 10-6.6 16.1-9.5 13.9-5.9 20.3-7.9c6.5-2 12.4-3.1 18.5-4 6.1-0.8 11.4-1.3 18.2-1.3s15.7 0.5 22.4 1.3c6.8 0.9 13 2.5 18.3 4 5.2 1.4 8.9 2.9 13.4 4.7 4.5 1.9 10 4.5 13.5 6.4 3.5 1.8 6.1 4 7.6 4.7 1.6 0.8 3 1.2 1.6-0.2s-6.8-5.9-10-8.2c-3.3-2.3-5.1-3.3-9.5-5.6-4.5-2.2-11.9-5.9-17.2-7.9s-10.2-3.1-14.8-4.2z" fill="#1D4155"/><path d="m323 164.2c-1.54-0.7-4.74 0.3-8.44-1.1s-9.7-5.5-13.7-7.4c-4.1-1.9-7.2-3-10.6-3.9-3.4-1-6.5-1.6-9.8-1.9-3.2-0.3-5.8-0.6-9.5 0s-9.5 2.3-12.6 3.4c-3.1 1.2-4 1.9-6.1 3.5-2.1 1.5-5.1 4.9-6.3 5.8-1.3 0.9-1 0.1-1.3-0.6-0.4-0.6-0.7-2.6-1.1-3.1s-0.8-0.3-1.3 0.2c-0.5 0.6-1.1 1.5-1.6 2.9-0.5 1.5-0.2 4.2-1.3 5.6s-4.1 1.9-5.3 2.6c-1.2 0.8-1.5 1.4-1.9 1.9-0.3 0.5-0.3 0.7-0.2 1s0.1 0.8 0.8 0.8c0.6 0.1 2.5-0.6 3.1-0.5 0.7 0 1.3-0.8 0.8 0.8-0.4 1.6-2.6 6.2-3.4 8.7-0.7 2.5-0.9 3.4-1.1 6.1-0.1 2.6-0.4 6.3 0 9.7 0.5 3.4 1.2 7.1 2.7 10.6s4.3 7.8 6.3 10.5c2 2.8 3.7 4 5.8 5.8 2.2 1.9 5.5 3.7 7.2 5.1 1.6 1.3 2.2 1.9 2.9 2.9s1.1 2 1.3 3.1 0.2 2.4 0 3.5c-0.2 1 0.5 0.7-1.1 2.9-1.6 2.1-6.5 6.9-8.7 10s-3.4 6.1-4.5 8.4c-1.1 2.4-0.9 1.2-2.1 5.8-1.1 4.7-3.8 17.2-4.7 22.2-1 5-0.8 5.9-0.8 7.7-0.1 1.7-1 3.6 0.5 2.9 1.4-0.8 4.8-5.3 8.2-7.4 3.4-2.2 9.1-4.4 12.1-5.6 3.1-1.1 1.6-0.9 6.1-1.3 4.5-0.3 15.8-0.4 20.8-0.8 5.1-0.3 6.1-0.6 9.3-1.3 3.2-0.6 7.2-1.6 10-2.6s5.5-2.5 6.6-3.5c1.1-0.9 1.1 0.3 0-2.3-1.1-2.7-5-10.8-6.6-13.8-1.6-2.9-1.4-2.3-3.2-4.2s-6.3-5.3-7.6-7.1-0.4-2.6-0.3-3.4c0.1-0.9 0.2-1.2 0.8-1.9s0.6-1.8 2.9-2.4c2.3-0.5 8.1-0.5 11.1-1s5.6-1.3 7.1-2.1c1.6-0.8 1.7-1.5 2.1-2.7s-0.2-3.1 0.3-4.5c0.5-1.3 2.4-2.3 2.9-3.4 0.5-1-0.3-1.9 0-2.9s1.8-1.8 1.9-3.2c0-1.3-1.7-3.3-1.4-4.7s2.6-2.6 3.2-3.7 1.4-1.6 0.5-3.2c-0.8-1.5-4.4-4.6-5.5-6-1.2-1.5-1.5-0.3-1.3-2.7 0.1-2.3 1.7-8.5 2.1-11.3 0.4-2.9 0.6-3.3 0.2-5.8-0.4-2.6-3-7.1-2.6-9.5 0.4-2.5 4.1-3.5 5.3-5 1.1-1.5 1.4-2.9 1.6-4 0.1-1.1 0.9-2-0.6-2.6zm-41.97 143.3c-1.97 0.1-9.37 1-11.87 1.5-2.5 0.6-2.4 1-3.2 1.6-0.8 0.7-1.2 1-1.6 2.4s-0.7-1-0.7 5.8c-0.1 6.9 0 29.5 0.2 35.4 0.2 5.8 0.7 5.3 0.8-0.3 0.1-5.5-0.1-26.9 0-33 0.1-6 0.4-2.3 0.8-3.4s0.9-2.1 1.8-3.2c1-1 1.5-2.2 3.7-3.1 2.3-1 8.4-2.1 10.1-2.7 1.6-0.6 2-1.1 0-1z" fill="#2E8B88"/></g><path transform="translate(84 47.9)" d="m5-8.7q1.5 0 2.5 0.6 1.1 0.5 1.7 1.5 0.5 0.9 0.5 2.3 0 1.3-0.5 2.3-0.6 0.9-1.7 1.5-1 0.5-2.5 0.5h-2.9v-0.5q0.3 0 0.7 0t0.8 0q0.3 0 0.6 0t0.5 0 0.2 0q0.8 0 1.5-0.5 0.6-0.4 1-1.3 0.3-0.9 0.3-2 0-1.2-0.3-2.1-0.4-0.8-1-1.3-0.7-0.4-1.5-0.4 0 0-0.2 0t-0.5 0-0.7 0-0.8 0-0.8 0v-0.6zm-1.7 0v8.7h-1.8v-8.7zm-1.8 7.8v0.9h-1v-0.1t0.1 0 0.1 0q0.3 0 0.5-0.3 0.3-0.2 0.3-0.5zm0-6.9q0-0.3-0.3-0.5-0.2-0.2-0.5-0.2 0 0-0.1 0t-0.1 0v-0.2h1zm11.7 0.4h1.3q0.5 0 1 0.1t0.8 0.3q0.4 0.2 0.7 0.6 0.2 0.4 0.2 1 0 0.4-0.2 0.9-0.2 0.4-0.5 0.7-0.4 0.3-1 0.4 0.3 0.1 0.7 0.4 0.3 0.4 0.5 0.7 0 0 0.1 0.3 0.2 0.2 0.4 0.5 0.1 0.2 0.4 0.5 0.2 0.4 0.4 0.5 0.2 0.2 0.4 0.3t0.4 0.1v0.1h-1q-0.7 0-1.1-0.1-0.5-0.1-0.8-0.4-0.4-0.2-0.7-0.7-0.1-0.1-0.2-0.4-0.1-0.2-0.2-0.4-0.2-0.3-0.3-0.5t-0.1-0.4q-0.2-0.4-0.4-0.5-0.2-0.2-0.3-0.2v-0.1q0.1 0 0.3 0t0.5-0.1q0.2-0.1 0.4-0.4 0.3-0.3 0.4-0.8 0 0 0-0.2 0-0.1 0-0.3 0-0.4-0.2-0.7-0.1-0.3-0.3-0.4-0.2-0.2-0.4-0.2-0.3-0.1-0.4-0.1-0.3 0-0.4 0-0.2 0-0.3 0 0 0-0.1-0.1 0-0.2 0-0.3t0-0.1zm0.1 0v7.4h-1.8v-7.4zm-1.8 6.6 0.1 0.8h-0.9v-0.1t0.1 0q0.3 0 0.5-0.2t0.2-0.5zm0-5.9q0-0.2-0.2-0.4t-0.5-0.2q-0.1 0-0.1 0v-0.1h0.9zm1.8 5.9q0 0.3 0.2 0.5t0.5 0.2q0.1 0 0.1 0v0.1h-0.9zm6.8 0.9q-0.4 0-0.7-0.2-0.2-0.3-0.2-0.7 0-0.3 0.2-0.6 0.3-0.3 0.7-0.3 0.3 0 0.6 0.3t0.3 0.6q0 0.4-0.3 0.7-0.3 0.2-0.6 0.2zm7.9-8.8h1.6q0.6 0 1.1 0.2 0.5 0.1 0.9 0.4 0.5 0.2 0.7 0.7 0.3 0.4 0.3 1.1 0 0.5-0.3 1-0.2 0.5-0.6 0.9-0.5 0.4-1.2 0.4 0.4 0.2 0.8 0.5 0.3 0.3 0.5 0.6 0 0 0.1 0.2 0.2 0.2 0.4 0.5 0.1 0.3 0.4 0.6 0.2 0.3 0.3 0.5 0.3 0.4 0.5 0.6 0.3 0.2 0.5 0.3t0.6 0.1v0.1h-1.2q-0.7 0-1.3-0.1-0.5-0.1-0.9-0.4t-0.7-0.8q-0.1-0.1-0.3-0.4-0.1-0.2-0.2-0.5-0.1-0.2-0.2-0.5-0.2-0.2-0.2-0.4-0.1-0.2-0.2-0.3-0.1-0.4-0.3-0.6-0.3-0.2-0.5-0.2v-0.2t0.1 0 0.3 0q0.3 0 0.6-0.1t0.6-0.4q0.2-0.3 0.3-0.9 0.1-0.1 0.1-0.2 0-0.2 0-0.4-0.1-0.9-0.5-1.3t-1-0.4q-0.2 0-0.4 0t-0.3 0q-0.2 0-0.3 0 0 0 0-0.2 0-0.1-0.1-0.2 0-0.2 0-0.2zm0.2 0v8.7h-1.9v-8.7zm-1.8 7.8v0.9h-1v-0.1t0.1 0q0.4 0 0.6-0.3 0.2-0.2 0.2-0.5zm0-6.9h-0.1q0-0.3-0.2-0.5t-0.6-0.2q-0.1 0-0.1 0v-0.2h1zm1.7 6.9h0.1q0 0.3 0.2 0.5 0.2 0.3 0.6 0.3 0 0 0.1 0v0.1h-1zm10.6-6.7q0.9 0 1.7 0.3t1.4 0.8 0.9 1.2 0.3 1.6-0.3 1.6-0.9 1.2-1.4 0.8-1.7 0.3q-1 0-1.8-0.3t-1.4-0.8-0.9-1.2-0.3-1.6 0.3-1.6 0.9-1.2 1.4-0.8 1.8-0.3zm0 7.3q0.7 0 1.3-0.4 0.5-0.4 0.8-1.2t0.3-1.8-0.3-1.8-0.8-1.2q-0.6-0.4-1.3-0.4-0.8 0-1.3 0.4-0.6 0.4-0.9 1.2t-0.3 1.8 0.3 1.8 0.9 1.2q0.5 0.4 1.3 0.4zm5.9-7.3 7.3 6.4 0.1 1.4-7.3-6.4zm0.1 6.8v0.8h-1v-0.1t0.1 0 0.1 0q0.3 0 0.5-0.2t0.2-0.5zm1.6 0q0 0.3 0.2 0.5t0.5 0.2q0 0 0.1 0t0.1 0v0.1h-0.9v-0.8zm-1.7-6.8 1.7 1.9v5.7h-1.7v-6.2q0-0.6 0-1-0.1-0.4-0.1-0.4zm7.4 0.2v6.1q0 0.4 0 0.8 0 0.3 0.1 0.5 0 0.2 0 0.2h-0.1l-1.7-2v-5.6zm-0.1 0.7v-0.7h1v0.1t-0.1 0-0.1 0q-0.3 0-0.5 0.2t-0.2 0.4zm-1.6 0q0-0.2-0.2-0.4t-0.5-0.2q0 0-0.1 0t-0.1 0v-0.1h0.9v0.7zm6.9-1.1 3.7 7.7h-2.1l-2.3-5.4zm-2.3 7q-0.2 0.3 0 0.5t0.4 0.2h0.1v0.1h-2.5v-0.1t0.1 0q0.3 0 0.6-0.2 0.2-0.1 0.4-0.5zm2.3-7v1.5l-2.6 6.3h-1l2.9-6.3q0.1 0 0.1-0.2 0.1-0.2 0.2-0.5 0.1-0.2 0.2-0.4t0.1-0.4zm1.1 5.4v0.5h-3.2v-0.5zm0.2 1.6h2q0.2 0.4 0.5 0.5 0.2 0.2 0.5 0.2 0.1 0 0.1 0v0.1h-3.6v-0.1h0.1q0.2 0 0.3-0.2 0.2-0.2 0.1-0.5zm5.9-6.6v7.4h-1.8v-7.4zm2.9 6.9 0.3 0.5h-3.2v-0.5zm0.8-1.8-0.5 2.3h-2.1l0.4-0.5q0.5 0 0.9-0.2t0.7-0.6 0.5-1zm-5.4 1.5v0.8h-0.9v-0.1t0.1 0q0 0 0.1 0 0.2 0 0.4-0.2t0.2-0.5zm1.7-5.8v-0.8h0.8v0.1q-0.1 0-0.1 0-0.3 0-0.5 0.2t-0.2 0.5zm-1.7 0h-0.1q0-0.3-0.2-0.5t-0.5-0.2q-0.1 0-0.1 0v-0.1h0.9zm10.1-0.8q1.3 0 2.3 0.4 0.9 0.5 1.4 1.3t0.5 2-0.5 2-1.4 1.3q-1 0.4-2.3 0.4h-2.8v-0.5q1 0 1.5 0 0.6 0 0.9 0 0.2 0 0.2 0 1.2 0 1.9-0.8 0.6-0.9 0.6-2.4t-0.6-2.4q-0.7-0.8-1.9-0.8 0 0-0.2 0-0.3 0-0.9 0t-1.6 0v-0.5zm-1.6 0v7.4h-1.7v-7.4zm-1.7 6.6v0.8h-0.9v-0.1t0.1 0 0.1 0q0.3 0 0.5-0.2t0.2-0.5zm0-5.8q0-0.3-0.3-0.5-0.2-0.2-0.4-0.2 0 0-0.1 0t-0.1 0v-0.1h0.9zm13-1q1 0 1.8 0.3t1.4 0.8 0.9 1.2 0.3 1.6-0.3 1.6-0.9 1.2-1.4 0.8-1.8 0.3q-0.9 0-1.7-0.3t-1.4-0.8-0.9-1.2-0.3-1.6 0.3-1.6 0.9-1.2 1.4-0.8 1.7-0.3zm0 7.3q0.8 0 1.4-0.4 0.5-0.4 0.8-1.2t0.3-1.8-0.3-1.8-0.8-1.2q-0.6-0.4-1.4-0.4-0.7 0-1.3 0.4-0.5 0.4-0.8 1.2t-0.3 1.8 0.3 1.8 0.8 1.2q0.6 0.4 1.3 0.4zm11.6-8.4v8.7h-1.9v-8.7zm3.2 8.2 0.3 0.5h-3.6v-0.5zm0.9-2-0.5 2.5h-2.5l0.5-0.5q0.6 0 1.1-0.3 0.4-0.2 0.8-0.7 0.3-0.4 0.5-1zm-5.9 1.6v0.9h-1v-0.1q0.1 0 0.1 0 0.3 0 0.6-0.3 0.2-0.2 0.2-0.5zm0-6.9h-0.1q0-0.3-0.2-0.5-0.3-0.2-0.6-0.2 0 0-0.1 0v-0.2h1zm1.7 0v-0.9h1v0.2t-0.1 0q-0.4 0-0.6 0.2t-0.2 0.5zm9.3 0.2q1 0 1.8 0.3t1.4 0.8 0.9 1.2 0.3 1.6-0.3 1.6-0.9 1.2-1.4 0.8-1.8 0.3-1.8-0.3-1.3-0.8q-0.6-0.5-0.9-1.2t-0.3-1.6 0.3-1.6 0.9-1.2q0.5-0.5 1.3-0.8t1.8-0.3zm0 7.3q0.8 0 1.3-0.4 0.6-0.4 0.9-1.2t0.3-1.8-0.3-1.8-0.9-1.2q-0.5-0.4-1.3-0.4-0.7 0-1.3 0.4-0.5 0.4-0.8 1.2-0.4 0.8-0.4 1.8t0.4 1.8q0.3 0.8 0.8 1.2 0.6 0.4 1.3 0.4zm7.7-7.1h1.2q1 0 1.6 0.3 0.6 0.2 1 0.7 0.3 0.5 0.3 1 0 0.8-0.3 1.3-0.3 0.6-0.8 0.8-0.6 0.3-1.2 0.3t-1.3-0.4v-0.2t0.2 0q0.1 0 0.3 0t0.4-0.2q0.2-0.1 0.4-0.3 0.2-0.3 0.3-0.7 0.1-0.2 0.1-0.3 0-0.2 0-0.4 0-0.6-0.4-1t-1.1-0.4h-0.6t0-0.2q0-0.1 0-0.2-0.1-0.1-0.1-0.1zm0.2 0v7.4h-1.8v-7.4zm-1.8 6.6 0.1 0.8h-0.9v-0.1q0.1 0 0.1 0 0.3 0 0.5-0.2t0.2-0.5zm0-5.9q0-0.2-0.2-0.4t-0.5-0.2q0 0-0.1 0 0 0-0.1 0v-0.1h1zm1.7 5.9h0.1q0 0.3 0.2 0.5 0.1 0.2 0.4 0.2 0 0 0.1 0t0.1 0v0.1h-0.9zm7.5-6.6v7.4h-1.8v-7.4zm2.8 6.9 0.3 0.5h-3.2v-0.5zm-0.4-3.4v0.5h-2.5v-0.5zm0.6-3.5v0.5h-3.1v-0.5zm0.6 5.1-0.4 2.3h-2.2l0.4-0.5q0.5 0 1-0.2 0.4-0.2 0.7-0.6t0.4-1zm-1.2-1.1v1h-0.1v-0.1q0-0.4-0.3-0.6-0.2-0.3-0.6-0.3zm0-1.6v1.1h-1q0.4 0 0.6-0.3 0.3-0.3 0.3-0.7v-0.1zm0.6-1.9v1.3h-0.1v-0.1q0-0.6-0.3-0.9t-0.9-0.3zm0-0.7v0.3l-1.3-0.1q0.3 0 0.7-0.1t0.6-0.1zm-4.8 6.8 0.1 0.8h-1v-0.1t0.1 0 0.1 0q0.3 0 0.5-0.2t0.2-0.5zm0-5.8q0-0.3-0.2-0.5t-0.5-0.2q0 0-0.1 0t-0.1 0v-0.1h1zm8.8-1q0.2 0 0.6 0 0.3 0.1 0.7 0.1 0.3 0 0.6 0.1 0.3 0 0.4 0.1l-0.2 1.5h-0.1q0-0.6-0.4-0.9-0.4-0.4-1.1-0.4-0.6 0-1 0.3-0.4 0.2-0.4 0.7 0 0.2 0.1 0.4t0.3 0.3 0.4 0.3l2 1.2q0.4 0.2 0.7 0.7t0.3 1.1q-0.1 0.7-0.4 1.2-0.4 0.5-1 0.8-0.7 0.3-1.5 0.3-0.6 0-1-0.1-0.5-0.1-0.8-0.3-0.3-0.1-0.5-0.3-0.1-0.2-0.1-0.6 0-0.3 0.1-0.7t0.3-0.6h0.1q-0.1 0.6 0.2 1 0.2 0.5 0.7 0.8t1.1 0.3q0.7 0 1.1-0.4 0.3-0.3 0.3-0.7t-0.2-0.6q-0.2-0.3-0.7-0.6l-1.7-1.1q-0.7-0.3-0.9-0.8-0.3-0.6-0.2-1.2 0-0.6 0.3-1t0.8-0.7q0.5-0.2 1.1-0.2zm2.3 0.1-0.1 0.3h-1.3v-0.3zm9.5-1.2q1.5 0 2.5 0.6 1.1 0.5 1.7 1.5 0.5 0.9 0.5 2.3 0 1.3-0.5 2.3-0.6 0.9-1.7 1.5-1 0.5-2.5 0.5h-2.9v-0.5q0.3 0 0.7 0t0.8 0q0.3 0 0.6 0t0.5 0 0.2 0q0.8 0 1.5-0.5 0.6-0.4 1-1.3 0.3-0.9 0.3-2 0-1.2-0.3-2.1-0.4-0.8-1-1.3-0.7-0.4-1.5-0.4 0 0-0.2 0t-0.5 0-0.7 0-0.8 0-0.8 0v-0.6zm-1.7 0v8.7h-1.8v-8.7zm-1.8 7.8v0.9h-1v-0.1t0.1 0 0.1 0q0.3 0 0.5-0.3 0.3-0.2 0.3-0.5zm0-6.9q0-0.3-0.3-0.5-0.2-0.2-0.5-0.2 0 0-0.1 0t-0.1 0v-0.2h1zm13.8 0.2q0.9 0 1.7 0.3 0.9 0.3 1.4 0.8 0.6 0.5 0.9 1.2t0.3 1.6-0.3 1.6-0.9 1.2q-0.5 0.5-1.4 0.8-0.8 0.3-1.7 0.3-1 0-1.8-0.3t-1.4-0.8-0.9-1.2-0.3-1.6 0.3-1.6 0.9-1.2 1.4-0.8 1.8-0.3zm0 7.3q0.7 0 1.3-0.4 0.5-0.4 0.8-1.2t0.3-1.8-0.3-1.8-0.8-1.2q-0.6-0.4-1.3-0.4-0.8 0-1.3 0.4-0.6 0.4-0.9 1.2t-0.3 1.8 0.3 1.8 0.9 1.2q0.5 0.4 1.3 0.4zm7.9-7.3q0.2 0 0.6 0 0.3 0.1 0.7 0.1 0.3 0 0.6 0.1 0.3 0 0.4 0.1l-0.2 1.5h-0.1q0-0.6-0.4-0.9-0.4-0.4-1.1-0.4-0.6 0-1 0.3-0.4 0.2-0.4 0.7 0 0.2 0.1 0.4t0.3 0.3 0.4 0.3l2 1.2q0.5 0.2 0.7 0.7 0.3 0.5 0.3 1.1 0 0.7-0.4 1.2t-1 0.8q-0.7 0.3-1.5 0.3-0.5 0-1-0.1t-0.8-0.3q-0.3-0.1-0.5-0.3-0.1-0.2-0.1-0.6 0-0.3 0.1-0.7t0.3-0.6h0.1q-0.1 0.6 0.2 1 0.2 0.5 0.7 0.8t1.1 0.3q0.7 0 1.1-0.4 0.4-0.3 0.4-0.7t-0.3-0.6q-0.2-0.3-0.7-0.6l-1.7-1.1q-0.6-0.3-0.9-0.8-0.3-0.6-0.2-1.2 0-0.6 0.3-1t0.8-0.7q0.5-0.2 1.1-0.2zm2.3 0.1v0.3h-1.4v-0.3zm7.9-1.3q0.3 0 0.6 0 0.4 0 0.8 0.1 0.4 0 0.7 0.1 0.3 0 0.4 0l-0.2 1.7h-0.1q0-0.6-0.5-1-0.4-0.4-1.2-0.4t-1.2 0.3q-0.4 0.4-0.5 0.9 0 0.3 0.3 0.6 0.2 0.3 0.6 0.5l2.4 1.6q0.5 0.3 0.8 0.8t0.3 1.2q-0.1 1.2-0.9 1.9-0.9 0.7-2.4 0.7-0.5 0-1-0.1-0.6-0.1-1-0.3-0.4-0.1-0.6-0.4-0.1-0.3-0.1-0.6 0-0.4 0.1-0.8t0.3-0.7h0.1q0 0.7 0.2 1.2 0.3 0.5 0.9 0.9 0.5 0.3 1.2 0.3 0.9-0.1 1.3-0.5 0.5-0.4 0.5-0.9 0-0.4-0.3-0.7-0.2-0.3-0.7-0.6l-2.2-1.5q-0.6-0.3-0.9-0.9t-0.3-1.3q0.1-0.6 0.4-1.1t0.9-0.8q0.6-0.2 1.3-0.2zm2.5 0.1v0.3h-1.5v-0.3zm5.1 0.9 3.7 7.7h-2.1l-2.3-5.4zm-2.3 7q-0.1 0.3 0.1 0.5 0.1 0.2 0.3 0.2h0.1v0.1h-2.4v-0.1q0.1 0 0.1 0 0.2 0 0.5-0.2 0.3-0.1 0.4-0.5zm2.3-7 0.1 1.5-2.7 6.3h-0.9l2.9-6.3t0.1-0.2 0.2-0.5q0.1-0.2 0.2-0.4 0-0.2 0.1-0.4zm1.1 5.4v0.5h-3.1v-0.5zm0.2 1.6h2.1q0.1 0.4 0.4 0.5 0.3 0.2 0.5 0.2 0 0 0.1 0v0.1h-3.6v-0.1h0.1q0.2 0 0.4-0.2 0.1-0.2 0-0.5zm4-6.8 7.3 6.4 0.1 1.4-7.2-6.4zm0.1 6.8v0.8h-0.9v-0.1t0.1 0 0.1 0q0.3 0 0.5-0.2t0.2-0.5zm1.6 0q0.1 0.3 0.3 0.5t0.4 0.2q0 0 0.1 0t0.1 0v0.1h-0.9v-0.8zm-1.7-6.8 1.7 1.9v5.7h-1.6v-6.2q0-0.6-0.1-1t-0.1-0.4zm7.4 0.2v6.1q0 0.4 0 0.8 0.1 0.3 0.1 0.5t0 0.2h-0.1l-1.7-2v-5.6zm0 0.7v-0.7h0.9v0.1t-0.1 0-0.1 0q-0.3 0-0.5 0.2t-0.2 0.4zm-1.7 0q0-0.2-0.2-0.4t-0.5-0.2q0 0-0.1 0t-0.1 0v-0.1h0.9v0.7zm7.6-0.7v7.4h-1.8v-7.4zm2.7 0v0.5h-7.2v-0.5zm0 0.4v1.3h-0.1v-0.1q0-0.5-0.3-0.8t-0.9-0.3v-0.1zm0-0.6v0.3l-1.3-0.1q0.2 0 0.5-0.1 0.3 0 0.5 0 0.2-0.1 0.3-0.1zm-4.5 6.8v0.8h-0.8v-0.1t0.1 0q0.3 0 0.5-0.2t0.2-0.5zm1.8 0q0 0.3 0.2 0.5t0.5 0.2q0.1 0 0.1 0v0.1h-0.8zm-3.2-6.2v0.1q-0.6 0-0.9 0.3-0.2 0.3-0.2 0.8v0.1h-0.2v-1.3zm-1.3-0.6q0.1 0 0.3 0.1 0.3 0 0.5 0 0.3 0.1 0.5 0.1l-1.3 0.1zm12.1 0q1 0 1.8 0.3t1.4 0.8 0.9 1.2 0.3 1.6-0.3 1.6-0.9 1.2-1.4 0.8-1.8 0.3q-0.9 0-1.7-0.3t-1.4-0.8-0.9-1.2-0.3-1.6 0.3-1.6 0.9-1.2 1.4-0.8 1.7-0.3zm0 7.3q0.8 0 1.4-0.4 0.5-0.4 0.8-1.2t0.3-1.8-0.3-1.8-0.8-1.2q-0.6-0.4-1.4-0.4-0.7 0-1.3 0.4-0.5 0.4-0.8 1.2t-0.3 1.8 0.3 1.8 0.8 1.2q0.6 0.4 1.3 0.4zm8-7.3q0.2 0 0.6 0 0.3 0.1 0.7 0.1 0.3 0 0.6 0.1 0.3 0 0.4 0.1l-0.2 1.5h-0.1q0-0.6-0.4-0.9-0.4-0.4-1.2-0.4-0.5 0-0.9 0.3-0.4 0.2-0.4 0.7 0 0.2 0.1 0.4t0.3 0.3 0.4 0.3l1.9 1.2q0.5 0.2 0.8 0.7t0.3 1.1q-0.1 0.7-0.4 1.2-0.4 0.5-1 0.8-0.7 0.3-1.5 0.3-0.6 0-1-0.1-0.5-0.1-0.8-0.3-0.3-0.1-0.5-0.3-0.1-0.2-0.1-0.6 0-0.3 0.1-0.7t0.3-0.6h0.1q-0.1 0.6 0.2 1 0.2 0.5 0.7 0.8 0.4 0.3 1.1 0.3t1.1-0.4q0.3-0.3 0.3-0.7t-0.2-0.6q-0.2-0.3-0.7-0.6l-1.8-1.1q-0.6-0.3-0.8-0.8-0.3-0.6-0.3-1.2 0.1-0.6 0.4-1t0.8-0.7q0.5-0.2 1.1-0.2zm2.3 0.1-0.1 0.3h-1.3v-0.3z" fill="#1D4155"/><path transform="translate(84 60.76)" d="m0.6 0v-4.9h2.1q0.6 0 1.1 0.3 0.5 0.2 0.7 0.6 0.3 0.4 0.3 0.9t-0.3 0.9q-0.2 0.4-0.7 0.6-0.5 0.3-1.1 0.3h-1.5l0.5-0.5v1.8zm1.1-1.7-0.5-0.6h1.4q0.5 0 0.8-0.2t0.3-0.6-0.3-0.6-0.8-0.2h-1.4l0.5-0.6zm5.9 1.8q-0.6 0-1.1-0.2-0.5-0.1-0.9-0.4l0.4-0.8q0.3 0.2 0.7 0.3 0.5 0.2 0.9 0.2 0.3 0 0.5-0.1 0.3-0.1 0.4-0.2 0-0.1 0-0.2 0-0.2-0.1-0.3-0.2-0.2-0.4-0.2-0.3-0.1-0.6-0.2-0.3 0-0.6-0.1t-0.5-0.3q-0.3-0.1-0.4-0.4-0.2-0.2-0.2-0.6t0.2-0.8q0.3-0.3 0.7-0.5 0.5-0.2 1.2-0.2 0.4 0 0.9 0.1 0.4 0.1 0.8 0.3l-0.4 0.8q-0.3-0.2-0.7-0.2-0.3-0.1-0.6-0.1-0.4 0-0.6 0-0.2 0.1-0.3 0.2-0.1 0.2-0.1 0.3 0 0.2 0.2 0.3 0.1 0.1 0.4 0.2 0.2 0.1 0.5 0.1 0.3 0.1 0.7 0.2 0.3 0.1 0.5 0.2 0.3 0.2 0.4 0.4 0.2 0.3 0.2 0.7t-0.3 0.7q-0.2 0.4-0.6 0.6-0.5 0.2-1.2 0.2zm3.2-0.1v-4.9h1.1v4.9zm5 0.1q-0.6 0-1.1-0.2t-0.8-0.5q-0.4-0.4-0.6-0.8-0.2-0.5-0.2-1 0-0.6 0.2-1 0.2-0.5 0.6-0.8 0.3-0.4 0.8-0.6 0.5-0.1 1.1-0.1 0.5 0 1 0.1 0.5 0.2 0.9 0.6 0.3 0.3 0.5 0.8 0.2 0.4 0.2 1 0 0.5-0.2 1-0.2 0.4-0.5 0.8-0.4 0.3-0.9 0.5t-1 0.2zm1.6 1q-0.3 0-0.6 0-0.2-0.1-0.5-0.2-0.2-0.2-0.5-0.4-0.3-0.3-0.6-0.6l1.2-0.3q0.2 0.3 0.3 0.4 0.2 0.2 0.4 0.2 0.1 0.1 0.3 0.1 0.4 0 0.8-0.4l0.5 0.6q-0.5 0.6-1.3 0.6zm-1.6-2q0.3 0 0.6-0.1 0.2-0.1 0.4-0.3 0.3-0.2 0.4-0.5t0.1-0.6q0-0.4-0.1-0.7-0.1-0.2-0.4-0.5-0.2-0.2-0.4-0.3-0.3-0.1-0.6-0.1-0.4 0-0.6 0.1-0.3 0.1-0.5 0.3-0.2 0.3-0.3 0.5-0.2 0.3-0.2 0.7 0 0.3 0.2 0.6 0.1 0.3 0.3 0.5t0.5 0.3q0.2 0.1 0.6 0.1zm6 1q-1.1 0-1.6-0.6-0.6-0.6-0.6-1.6v-2.8h1.1v2.7q0 0.7 0.3 1t0.8 0.3 0.8-0.3 0.3-1v-2.7h1.1v2.8q0 1-0.6 1.6t-1.6 0.6zm3.6-0.1v-4.9h1.2v4.9zm2 0 2.2-4.9h1.1l2.2 4.9h-1.2l-1.8-4.3h0.5l-1.8 4.3zm1.1-1 0.3-0.9h2.5l0.3 0.9zm6 1v-3.9h-1.6v-1h4.3v1h-1.6v3.9zm3.6 0v-4.9h2.1q1 0 1.6 0.5 0.5 0.5 0.5 1.3 0 0.5-0.2 0.9-0.3 0.4-0.7 0.6-0.5 0.2-1.2 0.2h-1.5l0.5-0.4v1.8zm3.1 0-1.2-1.8h1.2l1.2 1.8zm-2-1.7-0.5-0.5h1.5q0.5 0 0.7-0.3 0.3-0.2 0.3-0.6t-0.3-0.6q-0.2-0.2-0.7-0.2h-1.5l0.5-0.6zm3.7 1.7 2.2-4.9h1.1l2.2 4.9h-1.2l-1.8-4.3h0.5l-1.8 4.3zm1.1-1 0.3-0.9h2.5l0.3 0.9zm9.9 1.1q-0.6 0-1.1-0.2-0.4-0.2-0.8-0.5-0.4-0.4-0.6-0.8-0.2-0.5-0.2-1 0-0.6 0.2-1 0.2-0.5 0.6-0.8 0.4-0.4 0.9-0.6 0.4-0.1 1-0.1 0.7 0 1.2 0.2t0.9 0.6l-0.8 0.7q-0.2-0.3-0.5-0.5-0.4-0.1-0.7-0.1-0.4 0-0.7 0.1t-0.5 0.3q-0.2 0.3-0.3 0.5-0.1 0.3-0.1 0.7 0 0.3 0.1 0.6t0.3 0.5 0.5 0.3 0.7 0.1q0.3 0 0.6-0.1t0.6-0.3l0.7 0.8q-0.4 0.3-1 0.4-0.5 0.2-1 0.2zm2-0.6-1.1-0.2v-1.8h1.1zm1.4 0.5v-4.9h3.6v0.9h-2.5v3.1h2.6v0.9zm1-2v-0.9h2.3v0.9zm4 2v-4.9h2q1.1 0 1.6 0.5 0.6 0.5 0.6 1.3 0 0.5-0.3 0.9-0.2 0.4-0.7 0.6t-1.1 0.2h-1.5l0.5-0.4v1.8zm3.1 0-1.3-1.8h1.2l1.3 1.8zm-2-1.7-0.5-0.5h1.4q0.5 0 0.8-0.3 0.2-0.2 0.2-0.6t-0.2-0.6q-0.3-0.2-0.8-0.2h-1.4l0.5-0.6zm3.7 1.7 2.1-4.9h1.2l2.1 4.9h-1.2l-1.7-4.3h0.4l-1.8 4.3zm1.1-1 0.3-0.9h2.5l0.3 0.9zm5.2 1v-4.9h1.1v4h2.4v0.9zm6.8 0v-4.9h3.7v0.9h-2.5v3.1h2.6v0.9zm1.1-2v-0.9h2.3v0.9zm6.3 2v-4.9h2.2q0.8 0 1.4 0.3t0.9 0.9q0.3 0.5 0.3 1.3 0 0.7-0.3 1.3-0.3 0.5-0.9 0.8t-1.4 0.3zm1.1-0.9h1q0.5 0 0.8-0.2 0.4-0.2 0.6-0.5 0.2-0.4 0.2-0.8 0-0.5-0.2-0.8-0.2-0.4-0.6-0.6-0.3-0.1-0.8-0.1h-1zm4.2 0.9 2.2-4.9h1.1l2.2 4.9h-1.2l-1.8-4.3h0.5l-1.8 4.3zm1.1-1 0.3-0.9h2.5l0.3 0.9zm7.5 1v-4.9h1.2v4.9zm2.7 0v-4.9h0.9l2.9 3.5h-0.5v-3.5h1.1v4.9h-0.9l-2.9-3.5h0.5v3.5zm5.9 0v-4.9h3.7v0.9h-2.5v4zm1.1-1.8v-0.9h2.3v0.9zm2.9 1.8 2.1-4.9h1.2l2.1 4.9h-1.2l-1.7-4.3h0.4l-1.8 4.3zm1.1-1 0.3-0.9h2.5l0.3 0.9zm0.2-4.3 0.9-1h1l0.9 1h-0.8l-1-0.8h0.7l-0.9 0.8zm5 5.3v-4.9h0.9l2.9 3.5h-0.5v-3.5h1.1v4.9h-0.9l-2.9-3.5h0.5v3.5zm8.3 0.1q-0.6 0-1.1-0.2t-0.8-0.5q-0.4-0.4-0.6-0.8-0.2-0.5-0.2-1 0-0.6 0.2-1 0.2-0.5 0.6-0.8 0.3-0.4 0.8-0.6 0.5-0.1 1.1-0.1t1.1 0.2 0.9 0.6l-0.8 0.7q-0.2-0.3-0.5-0.4-0.3-0.2-0.7-0.2-0.3 0-0.6 0.1t-0.5 0.3q-0.2 0.3-0.3 0.5-0.1 0.3-0.1 0.7 0 0.3 0.1 0.6t0.3 0.5 0.5 0.3 0.6 0.1q0.4 0 0.7-0.1 0.3-0.2 0.5-0.5l0.8 0.7q-0.4 0.4-0.9 0.7-0.5 0.2-1.1 0.2zm3-0.1v-4.9h1.1v4.9zm2 0 2.2-4.9h1.1l2.1 4.9h-1.1l-1.8-4.3h0.4l-1.8 4.3zm1.1-1 0.3-0.9h2.5l0.3 0.9zm7.5 1v-4.9h3.7v0.9h-2.6v3.1h2.7v0.9zm1-2v-0.9h2.4v0.9zm5.7 2 2.2-4.9h1.1l2.1 4.9h-1.1l-1.8-4.3h0.4l-1.8 4.3zm1.1-1 0.3-0.9h2.5l0.3 0.9zm5.2 1v-4.9h2.2q0.8 0 1.4 0.3t0.9 0.9q0.4 0.5 0.4 1.3 0 0.7-0.4 1.3-0.3 0.5-0.9 0.8t-1.4 0.3zm1.1-0.9h1.1q0.4 0 0.8-0.2t0.6-0.5q0.2-0.4 0.2-0.8 0-0.5-0.2-0.8-0.2-0.4-0.6-0.6-0.4-0.1-0.8-0.1h-1.1zm7.3 1q-0.5 0-1-0.2t-0.9-0.5q-0.3-0.4-0.5-0.8-0.2-0.5-0.2-1 0-0.6 0.2-1 0.2-0.5 0.5-0.8 0.4-0.4 0.9-0.6 0.5-0.1 1-0.1 0.6 0 1.1 0.1 0.5 0.2 0.8 0.6 0.4 0.3 0.6 0.8 0.2 0.4 0.2 1 0 0.5-0.2 1-0.2 0.4-0.6 0.8-0.3 0.3-0.8 0.5t-1.1 0.2zm0-1q0.4 0 0.6-0.1 0.3-0.1 0.5-0.3t0.3-0.5q0.2-0.3 0.2-0.6 0-0.4-0.2-0.7-0.1-0.2-0.3-0.5-0.2-0.2-0.5-0.3-0.2-0.1-0.6-0.1-0.3 0-0.6 0.1-0.2 0.1-0.4 0.3-0.3 0.3-0.4 0.5-0.1 0.3-0.1 0.7 0 0.3 0.1 0.6t0.4 0.5q0.2 0.2 0.4 0.3 0.3 0.1 0.6 0.1zm3.9 0.9v-4.9h1.1v4h2.5v0.9zm4.5 0v-4.9h3.7v0.9h-2.5v3.1h2.6v0.9zm1.1-2v-0.9h2.3v0.9zm5.5 2.1q-0.5 0-1.1-0.2-0.5-0.1-0.8-0.4l0.3-0.8q0.4 0.2 0.8 0.3 0.4 0.2 0.8 0.2t0.6-0.1 0.3-0.2 0.1-0.2q0-0.2-0.2-0.3-0.1-0.2-0.4-0.2-0.2-0.1-0.5-0.2-0.3 0-0.6-0.1t-0.6-0.3q-0.2-0.1-0.4-0.4-0.1-0.2-0.1-0.6t0.2-0.8q0.2-0.3 0.7-0.5 0.4-0.2 1.1-0.2 0.5 0 0.9 0.1 0.5 0.1 0.8 0.3l-0.4 0.8q-0.3-0.2-0.6-0.2-0.4-0.1-0.7-0.1t-0.5 0q-0.2 0.1-0.3 0.2-0.1 0.2-0.1 0.3 0 0.2 0.1 0.3 0.2 0.1 0.4 0.2 0.3 0.1 0.6 0.1 0.3 0.1 0.6 0.2t0.5 0.2q0.3 0.2 0.4 0.4 0.2 0.3 0.2 0.7t-0.2 0.7q-0.3 0.4-0.7 0.6-0.5 0.2-1.2 0.2zm5.5 0q-0.5 0-1-0.2t-0.8-0.5q-0.4-0.4-0.6-0.8-0.2-0.5-0.2-1 0-0.6 0.2-1 0.2-0.5 0.6-0.8 0.3-0.4 0.8-0.6 0.5-0.1 1.1-0.1t1.1 0.2 0.9 0.6l-0.8 0.7q-0.2-0.3-0.5-0.4-0.3-0.2-0.7-0.2-0.3 0-0.6 0.1t-0.5 0.3q-0.2 0.3-0.3 0.5-0.1 0.3-0.1 0.7 0 0.3 0.1 0.6t0.3 0.5 0.5 0.3 0.6 0.1q0.4 0 0.7-0.1 0.3-0.2 0.5-0.5l0.8 0.7q-0.4 0.4-0.9 0.7-0.5 0.2-1.2 0.2zm3.1-0.1v-4.9h3.7v0.9h-2.6v3.1h2.7v0.9zm1-2v-0.9h2.4v0.9zm-0.6-3.3 0.9-1h1l0.9 1h-0.8l-0.9-0.8h0.7l-1 0.8zm4.6 5.3v-4.9h0.9l2.9 3.5h-0.5v-3.5h1.2v4.9h-1l-2.8-3.5h0.4v3.5zm8.3 0.1q-0.6 0-1.1-0.2-0.4-0.2-0.8-0.5-0.4-0.4-0.6-0.8-0.1-0.5-0.1-1 0-0.6 0.1-1 0.2-0.5 0.6-0.8 0.4-0.4 0.8-0.6 0.5-0.1 1.1-0.1t1.1 0.2 0.9 0.6l-0.7 0.7q-0.3-0.3-0.6-0.4-0.3-0.2-0.7-0.2-0.3 0-0.6 0.1t-0.5 0.3q-0.2 0.3-0.3 0.5-0.1 0.3-0.1 0.7 0 0.3 0.1 0.6t0.3 0.5 0.5 0.3 0.6 0.1q0.4 0 0.7-0.1 0.3-0.2 0.6-0.5l0.7 0.7q-0.4 0.4-0.9 0.7-0.5 0.2-1.1 0.2zm3-0.1v-4.9h1.2v4.9zm2 0 2.2-4.9h1.1l2.2 4.9h-1.2l-1.8-4.3h0.5l-1.8 4.3zm1.1-1 0.3-0.9h2.5l0.3 0.9z" fill="#1E8A82"/></svg>
